<svg version="1.1" id="_x31_" xmlns="http://www.w3.org/2000/svg" xmlns:xlink="http://www.w3.org/1999/xlink" x="0px" y="0px" width="115.066px" height="40.465px" fill="#ffffff" viewBox="0 0 115.066 40.465" enable-background="new 0 0 115.066 40.465" xml:space="preserve">            <path d="M41.223,31.873c-0.292-0.658-0.542-1.384-0.733-2.082C41.508,30.066,41.752,30.971,41.223,31.873z M113.953,36.523                c-2.007,1.976-5.857,1.885-6.992,1.821c-1.149-0.064-4.063,0.024-4.437,0.095c-0.971,0.185-6.432,2.323-10.174,1.99                c-4.015-0.357-8.094-2.988-9.636-5.336c-2.004,1.054-12.697,4.691-18.55,4.454c-2.669-0.108-8.457-1.236-12.948-2.593                c-0.045,0.427-0.47,1.931-1.368,1.94c-1.278,0.013-2.312-1.876-2.659-2.452c-0.199-0.009-0.312-0.016-0.511-0.02                c0.268,0.789,0.664,1.754,0.132,2.478c-1.474,2.007-4.131,0.153-4.941-0.522c-0.479-0.399-1.128-1.238-1.792-1.745                c-1.089,0.027-2.179,0.062-3.266,0.134c-0.636,0.282-3.472,1.108-6.922-0.03c-0.464-0.043-0.93-0.069-1.398-0.053                c-0.979,0.034-1.943,0.192-2.91,0.332c-1.438,0.206-3.821,0.394-4.897-0.812c-0.453-0.17-1.128-0.739-1.324-1.219                c-0.412-1.006-0.404-2.3-0.084-3.309c1.676-5.29,10.963-5.848,11.397-5.857c-1.235-1.034-2.053-2.644-2.053-4.199                c0-3.502,6.211-8.693,7.726-10.082c-1.752,0.395-6.661,0.4-9.705-0.342c-1.526-0.373-2.951,0.489-4.357,1.102                c-2.462,1.085-5.245,1.793-7.947,1.691c-1.917-0.071-3.814-0.09-5.702,0.242c-6.278,1.102-7.832-1.6-8.321-2.853                c-0.391-1.002-0.533-2.209,0.277-3.014c0.484-0.48,1.584-0.486,2.23-0.545c0.583-0.054,1.816-0.08,1.816-0.08S7.639,6.947,9.1,6.383                c1.245-0.48,10.592-3.915,14.127-4.846c3.784-0.997,7.897-1.038,11.725-1.166c5.525-0.185,7.179-0.703,12.16-0.055                C48.61,0.512,66.977,6.668,71.34,7.712c2.858,0.685,9.695,4.315,12.178,3.901C83.236,10.7,83.51,9.898,84.08,9.24                c-0.012-0.008-0.023-0.017-0.031-0.027c2.871-3.365,7.977-3.06,9.088-3.147c4.958-0.392,7.46,0.544,15.237,0.161                c1.348,0.644,2.529,1.235,3.733,1.901c-0.761-0.194-2.864-0.752-3.159-0.826c1.053,0.733,2.109,1.463,3.159,2.201                c-0.945-0.399-5.119-2.393-5.102-2.451c-0.141,0.017-0.282,0.033-0.423,0.05c0.288,0.309,0.567,0.627,0.838,0.954                c0.444,0.09,0.928,0.4,1.206,0.403c0,0,2.052,1.109,3.112,1.76c1.351,0.828,1.134,2.156,1.901,3.384                c-0.685-0.326-0.701-1.176-1.073-1.682c-0.332-0.45-1.38-1.479-1.929-1.443c0.651,0.65,0.883,1.247,1.201,2.054                c-1.154,0.161-1.696-1.64-2.341-2.311c-0.306-0.318-0.569-0.417-0.858-0.545c1.35,1.978,2.394,4.188,3.034,6.441                c-0.953-2.293-3.525-5.787-6.595-8.856c-0.229,0.021-0.458,0.04-0.687,0.058c3.272,2.988,6.057,6.967,6.938,11.323                c-0.824-2.812-2.424-5.333-4.393-7.481c-0.969-1.058-4.102-3.685-4.122-3.748c-0.501,0.021-1.003,0.035-1.505,0.041                c0.461,0.409,0.833,0.956,1.473,1.233c0.019-0.432-0.102-0.798-0.387-1.109c0.831,0.758,1.989,1.446,2.217,2.609                c-0.583-0.046-0.978-0.791-1.539-1.09c0.525,0.289,1.153,1.127,0.833,1.633c0.477,0.799,0.813,1.668,0.946,2.603                c-0.606-2.091-2.199-3.663-4.044-4.727c-0.473-0.271-2.566-1.097-2.655-1.179c-0.016-0.016-0.03-0.032-0.042-0.051                c-0.041-0.003-3.638-0.436-5.4-0.328c-0.29,0.019-0.578,0.044-0.864,0.077c3.631,0.148,6.169,1.32,7.705,2.748                c7.953,7.394,4.619,21.692,4.535,22.42c-0.67-0.08-0.942-0.532-1.049-1.105c-0.298,0.116-2.618,1.188-3.264,1.712                c0.861-0.016,2.503-1.263,3.159-0.593c-0.808,0.773-1.966,0.993-2.924,1.479c-0.413,0.209-0.731,0.537-1.037,0.879                c-0.027,0.079-0.055,0.157-0.083,0.236c0.594-0.203,5.61-2.205,5.599-2.147c1.193-2.236,1.331-3.949,2.396-7.149                c-0.14,2.54-0.855,5.033-1.847,7.365c-0.293,0.688-0.613,1.366-0.96,2.03c0.415-0.356,0.811-0.731,1.184-1.124                c1.919-2.02,3.215-4.56,3.973-7.228c-0.312,3.707-1.694,6.598-4.586,9.09c3.174-2.248,5.426-5.128,7.023-9.09                c-0.74,3.83-2.668,7.168-7.22,10.474c0.155-0.009,0.311-0.016,0.466-0.019c3.518-2.358,6.76-5.551,8.582-9.41                c-0.95,3.133-2.524,6.527-6.979,9.456c0.297,0.015,0.923-0.043,0.952-0.079c3.223-1.74,5.486-4.454,7.594-7.835                c-0.721,2.43-2.198,4.601-3.923,6.432c-0.52,0.552-1.069,1.078-1.645,1.573C110.815,37.775,113.948,36.364,113.953,36.523z                 M89.677,10.199c0.552-0.302,1.013-0.665,0.784-0.979c-0.161,0.081-0.312,0.181-0.441,0.303C89.663,9.86,89.637,9.958,89.677,10.199                z M1.991,9.808c0.621,0.275,1.393,0.337,2.071,0.237C5.113,9.89,4.657,8.759,4.415,8.403C3.584,8.499,2.16,8.504,1.467,8.627                C1.208,8.698,0.993,8.799,0.992,8.942C0.983,9.273,1.735,9.693,1.991,9.808z M31.947,24.221c0.049-0.053,0.132-0.128,0.183-0.183                c-0.266-0.438-1.451-0.932-1.511-1.389c-0.109-0.816,1.766,0.187,2.204,0.252c1.447,0.219,2.978-0.475,4.396-0.048                c-0.366-0.253-0.765-0.426-1.207-0.475c-0.002-0.041-0.004-0.081-0.005-0.122c-0.847-0.026-1.705-0.189-2.467-0.482                c0.707-0.038,1.392-0.158,2.05-0.389c0.219-0.83-0.271-1.585-1.024-2.028c0.924,0.055,1.538,0.232,2.343,0.686                c0.007-0.008,0.146-0.111,0.162-0.118c-0.287-0.503-0.888-1.077-1.023-1.613c0.787-0.006,1.368,0.467,1.732,0.952                c0.064-0.725-0.603-1.133-0.77-1.742c0.404,0.099,0.864,0.317,1.19,0.598c0.328,0.28,0.236,0.686,0.794,0.71                c-0.756-0.763-1.348-1.867-2.146-2.631c1.486,0.039,1.674,0.688,2.813,1.41c-0.194-0.413-0.572-1.043-0.857-1.385                c-0.385-0.46-0.999-0.624-1.297-1.152c0.562-0.473,1.575-0.099,2.154,0.183c-0.544-0.599-1.275-0.837-1.887-1.282                c0.01,0.234-0.149,0.369-0.191,0.566c-0.331-0.156-0.737-0.296-1.155-0.402c-1.798,1.534-3.544,3.126-4.958,5.027                c-0.734,0.983-1.596,2.183-1.291,3.474c0.022,0.096,0.052,0.194,0.088,0.295C30.678,23.468,31.295,23.891,31.947,24.221z                 M41.755,23.536c-0.118-0.103-0.24-0.198-0.364-0.297c-0.285-0.109-0.573-0.216-0.846-0.313c-0.4-0.143-0.807-0.534-1.176-0.65                c-0.196-0.062-0.606,0.038-1.037,0.102c0.203,0.202,0.394,0.42,0.573,0.644c0.521,0.058,1.069,0.016,1.572,0.147                C41.013,23.308,41.32,23.53,41.755,23.536z M39.607,23.95c-0.014-0.002-0.028-0.005-0.042-0.008c0.08,0.122,0.201,0.308,0.334,0.515                c0.487-0.123,1.196-0.188,1.504-0.065C40.795,23.735,40.325,24.071,39.607,23.95z M37.15,24.976c0.513-0.082,0.94-0.577,1.509-0.583                c-0.267-0.38-0.555-0.744-0.87-1.058c-0.449,0.216-1.684-0.049-2.191,0.002c-0.532,0.053-2.397-0.051-1.808,0.946                c1.155,0.187,2.185-0.842,3.451-0.317c-0.075,0.829-1.718,0.178-1.975,0.84C35.864,24.841,36.58,25.067,37.15,24.976z                 M34.926,25.404c-0.476-0.195-1.167-0.023-1.662,0.041c0.037,0.104,0.072,0.218,0.106,0.334c0.7-0.01,1.401-0.023,2.101-0.052                C35.32,25.613,35.154,25.498,34.926,25.404z M38.228,25.017c0.246,0.338,0.691,0.21,1.042,0.381c0.015-0.002,0.03-0.004,0.044-0.006                c-0.179-0.286-0.367-0.583-0.567-0.874C38.627,24.704,38.443,24.881,38.228,25.017z M39.102,18.946                c0.002-0.002,0.005-0.004,0.007-0.006c-0.004-0.004-0.008-0.008-0.012-0.012C39.099,18.936,39.101,18.94,39.102,18.946z                 M41.784,22.798c0.023-0.021,0.046-0.04,0.07-0.06c-0.567-0.512-1.414-1.785-2.149-1.554c0.162,0.201,0.298,0.443,0.439,0.662                C40.558,21.919,41.454,22.304,41.784,22.798z M42.45,22.247c0.093-0.074,0.186-0.147,0.279-0.222                c-0.219-0.432-0.354-0.969-0.662-1.318c-0.317-0.362-0.786-0.513-1.136-0.813C40.334,20.433,42.122,21.553,42.45,22.247z                 M43.572,21.365c0.042-0.033,0.084-0.066,0.126-0.1c-0.316-1.038-0.969-2.13-1.916-2.638c-0.015,0.014-0.03,0.027-0.045,0.042                C41.774,19.765,42.929,20.535,43.572,21.365z M42.947,23.084c0.219,0.159,0.435,0.339,0.635,0.533                c0.013-0.687,0.665-1.461,1.065-2.065C44.103,22.084,43.493,22.567,42.947,23.084z M44.681,20.402                c0.008-0.282,0.025-0.565,0.05-0.848c-0.49-0.584-1.263-1.028-1.782-1.424c0.549,0.92,1.006,1.536,1.675,2.33                C44.643,20.441,44.662,20.422,44.681,20.402z M40.491,12.267c0.646,0.643,1.156,1.199,1.953,1.684                c-0.65-0.451-1.118-1.178-1.168-1.912c1.254,0.442,2.257,0.956,2.893,2.071c0.097-0.105,0.349-0.189,0.287-0.318                C43.346,11.493,40.743,11.259,40.491,12.267z M39.62,16.044c0.192,0.581,0.717,1.093,0.768,1.731c0,0.004,0,0.007,0,0.01                c0.27-0.251,0.539-0.502,0.807-0.752C40.79,16.579,40.09,16.293,39.62,16.044z M40.745,35.359c-0.003-0.358-0.052-0.7-0.335-0.929                c-0.054,0.112-0.179,0.243-0.249,0.374c0.025,0.203,0.063,0.4,0.13,0.586C40.442,35.381,40.593,35.37,40.745,35.359z M52.04,35.382                c-0.389-0.44-0.771-0.892-1.275-1.239c-0.048,0.368,0.036,0.718,0.172,1.052C51.305,35.251,51.672,35.313,52.04,35.382z                 M93.658,30.317c-1.012,0.202-5.608,1.365-6.852,1.21c2.245-1.476,7.131-3.119,8.211-3.839c-1.704,0.174-3.429,0.748-5.185,0.944                c0.762-0.657,4.62-2.06,5.115-2.667c-0.837,0.118-2.391,0.412-3.272,0.404c1.307-1.03,2.872-1.538,3.952-2.264                c0-0.005-0.001-0.011-0.001-0.016c-0.706,0.246-3.053,0.669-4.015,0.722c0.673-0.626,2.681-1.273,3.456-1.847                c-1.144,0.252-2.215,0.603-3.377,0.765c1.131-0.84,1.715-1.336,3.013-1.924c-0.543,0.21-1.937,0.382-2.748,0.494                c1.299-1.299,1.907-1.42,2.853-2.056c-0.011-0.035-0.021-0.069-0.032-0.104c-0.646,0.234-1.474,0.409-2.133,0.399                c0.32-0.421,1.094-0.993,1.587-1.396c-0.421,0.04-1.406,0.114-1.781,0.004c0.682-0.682,1.549-1.263,1.539-1.29                c-0.023-0.061-0.047-0.12-0.072-0.181c-0.625,0.098-1.462,0.211-1.992-0.016c0.368-0.484,1.321-1.349,1.272-1.433                c-0.468,0.038-1.007,0.28-1.42,0.241c0.235-0.404,0.657-0.646,0.971-0.96c-0.219-0.328-1.172-1.477-1.452-1.699                c-2.686,0.623-5.504,0.736-8.244,0.47c-0.381-0.038-0.755-0.111-1.124-0.209c-0.38,0-0.747-0.001-1.06,0.061                c0.449,0.558,1.678,0.306,2.25,0.836c-0.979,0.064-1.886-0.106-2.77-0.227c0.607,0.794,1.769,0.537,2.596,0.965                c-0.571,0.403-3.802-0.459-4.597-0.564c0.458-0.497,1.219-0.196,1.803-0.433c-0.044-0.86-1.952-0.606-2.48-1.031                c0.429-0.276,1.047-0.089,1.463-0.259c-1.255-0.61-2.72-0.834-3.99-1.397c0.514-0.089,1.043-0.157,1.58-0.198                c-0.569-0.261-1.14-0.519-1.717-0.764c-1.854-0.791-3.743-1.406-5.681-1.943c-2.641-0.731-5.293-1.423-7.906-2.253                c-0.985-0.313-5.665-2.191-7.019-2.813c-0.01-0.005-0.021-0.01-0.032-0.015c-0.006,0.617-0.149,1.239-0.542,1.712                c-0.543,0.652-1.406,0.793-2.208,0.708c1.174-0.126,2.136-0.73,2.003-2.035c-0.028-0.265-0.09-0.525-0.177-0.777                c-0.761-0.301-1.537-0.559-2.316-0.81c-0.355,0.302-0.529,0.725-0.233,1.185c-0.49-0.319-0.509-0.874-0.337-1.367                c-0.211-0.067-0.422-0.135-0.633-0.203c-1.763-0.571-3.489-1.051-5.296-1.19c-0.587,0.201-1.105,0.515-1.275,1.077                c-0.69-0.344-0.039-1.212-1.072-0.688c-0.346,0.176-0.894,0.887-1.11,1.165c-0.295-0.401-0.372-0.88-0.329-1.376                c-0.761,0.106-1.52,0.239-2.277,0.366c-1.096,0.185-2.16,0.314-3.226,0.389c-0.383,0.247-0.755,0.447-1.028,0.511                c0.005-0.165,0.06-0.314,0.125-0.463c-0.333,0.013-0.667,0.02-1.002,0.021c-0.8,0.367-1.666,0.706-2.435,0.614                c0.033-0.241,0.143-0.481,0.294-0.687c-0.351-0.022-0.701-0.044-1.052-0.064c-0.474,0.259-0.948,0.59-1.239,0.666                c0.099-0.214,0.247-0.457,0.301-0.711c-0.19-0.008-0.381-0.014-0.571-0.018c-0.595,0.178-1.189,0.491-1.819,0.552                c-0.025-0.196,0.035-0.366,0.113-0.524c-1.429,0.088-2.778,0.422-4.133,0.879c-1.843,0.64-9.124,3.09-14.522,4.826                c-0.12,0.423,0.14,0.986,0.06,1.439c-0.39-0.293-0.7-0.924-1.068-1.256C7.355,7.979,7.349,7.979,7.342,7.98                c0.164,0.438,0.253,0.979-0.029,1.404c-0.045-0.529-0.289-1.003-0.658-1.29c-0.463,0.074-0.926,0.143-1.39,0.204                C5.284,8.321,5.691,9.366,5.45,9.916c-0.341,0.778-1.281,0.942-2.04,0.892c-0.208-0.014-0.423-0.042-0.638-0.085                c0.173,0.413,0.441,0.847,0.554,1.291c0.03-0.005,0.207-0.006,0.235,0c0.009-0.335-0.079-0.665-0.237-0.929                c0.806,0.114,1.189,0.64,1.783,1.124c-0.004-0.354-0.075-0.792-0.37-1.059c0.899,0.112,1.652,0.782,2.044,1.563                c0.15-0.016,0.3-0.029,0.45-0.044c-0.161-0.392-0.362-0.774-0.6-1.062c0.646,0.079,0.919,0.657,1.365,0.987                c0.135-0.014,0.269-0.026,0.403-0.04c-0.137-0.516-0.66-0.954-1.05-1.298c0.941,0.144,1.489,0.697,2.23,1.182                c0.04-0.004,0.079-0.009,0.119-0.013c-0.12-0.298-0.354-0.572-0.475-0.891c0.317,0.318,0.716,0.588,1.122,0.82                c0.108-0.012,0.217-0.024,0.325-0.036c-0.401-0.585-0.992-0.879-1.43-1.406c1.365-0.08,2.125,0.646,3.167,1.215                c0.1-0.01,0.199-0.02,0.298-0.028c-0.14-0.215-0.271-0.432-0.33-0.668c0.569-0.005,1.073,0.267,1.551,0.563                c0.149-0.013,0.298-0.028,0.446-0.044c-0.439-0.874-1.543-1.513-2.418-1.753c1.472-0.137,2.121,0.786,3.337,1.299                c-0.252-0.445-0.513-0.882-0.809-1.303c2.841,0.876,4.7,0.625,5.181,0.626c0.6-0.15,3.24-0.792,3.961-0.952                c-0.028-0.151-0.087-0.296-0.195-0.43c0.445-0.223,0.937,0.227,1.458,0.135c-0.115-0.202-0.123-0.639-0.242-0.837                c0.425,0.124,1.751,1.137,2.49,0.612c-0.388-0.273-0.702-0.669-1.008-1.05c0.467,0.066,0.834,0.445,1.288,0.514                c0.604,0.09,4.704,1.301,10.318,0.497c1.535-0.22,3.17-0.104,4.673,0.317c1.536,0.43,2.589,1.354,3.251,2.636                c0.023-1.976-0.413-3.582-0.615-4.139c-0.158-0.434-0.856-1.121-0.436-1.313c0.891-0.407,1.699,1.472,2.188,3.899                c1.203,5.975-0.314,9.368,0.937,11.878c0.467-0.257,0.93-0.524,1.389-0.8c-0.004-0.025-0.006-0.051-0.001-0.075                c1.57-2.393,2.688-5.127,3.192-7.945c-0.1,2.03-0.573,4.051-1.232,5.97c-0.126,0.369-0.264,0.733-0.407,1.096                c0.038-0.023,0.075-0.048,0.113-0.071c0-0.007,0-0.015,0.001-0.021c0.993-1.825,1.869-3.711,2.57-5.667                c-0.207,1.178-0.512,2.334-0.831,3.485c-0.115,0.414-0.235,0.826-0.36,1.237c0.866-1.49,1.549-3.077,2.061-4.723                c-0.13,1.1-0.372,2.184-0.654,3.254c-0.073,0.273-0.151,0.546-0.232,0.816c0.19-0.12,0.38-0.24,0.57-0.361                c0.126-0.278,0.057-0.126,0,0c0-0.001,0-0.001,0.001-0.001c0.531-1.151,1.213-2.438,1.36-3.708c0.09,0.917-0.189,1.937-0.356,2.827                c-0.008,0.045-0.021,0.141-0.036,0.26c0.266-0.171,2.15-1.389,2.108-1.296c-1.02,2.213-9.088,6.917-13.241,8.906                c-2.923,1.4-7.418,1.613-9.92,1.832c-3.009,0.264-6.132,0.351-9.022,1.312c-1.341,0.461-4.956,2.261-4.234,5.53                c0.038,0.19,0.15,0.345,0.296,0.481c0.052-0.968,0.763-2.145,1.525-2.601c1.063-0.636,3.207-0.482,4.41-0.421                c0.012,0.113-0.217,0.406-0.998,0.406c-0.819,0-1.681-0.016-2.477,0.341c-0.764,0.343-1.656,0.992-1.723,1.906                c0.905,0.36,1.876,0.336,2.675,0.201c-0.338,0-0.632-0.216-0.819-0.467c0.794,0.277,2.454,0.764,3.523,0.453                c0.793-0.23,1.576-2.336,0.444-2.679c0.726-0.182,1.394-0.116,1.634,0.438c-0.226,1.133-0.534,2.366-0.021,3.442                c0.1,0.003,0.2,0.007,0.3,0.012c-0.036-0.077-0.31-2.097,0.087-2.664c0.12,0.733,0.207,1.768,0.592,2.219                c-0.189-0.527,0.019-2.055,0.433-2.416c0.035,0.62-0.176,2.366,0.371,2.989c0.175,0.019,0.351,0.037,0.526,0.055                c0.014-0.414-0.079-0.786-0.103-1.193c0.165,0.219,0.42,0.412,0.599,0.572c0.055-0.975,0.128-2.005,0.361-2.924                c0.263,0.852,0.392,1.802,0.766,2.58c0.166-0.885-0.104-2.517,0.433-3.211c0.182,0.646,0.381,1.233,0.476,1.901                c0.407-0.58-0.062-1.738,0.486-2.248c0.15,0.736,0.355,2.95,0.866,3.44c0.272-0.412,0.287-0.95,0.457-1.416                c0.091,0.609,0.385,1.193,0.631,1.769c0.2-0.317,0.389-0.726,0.43-1.097c0.27,0.39,0.463,0.895,0.723,1.321                c0.718-0.083,1.438-0.146,2.163-0.198c0.045-0.003,0.09-0.006,0.134-0.01c-0.032-0.713-0.125-1.566,0.098-2.16                c0.189,0.382,0.221,0.815,0.26,1.241c0.025-1.504,0.115-2.78-0.79-4.172c1.298,1.033,1.26,2.396,1.924,3.764                c0.149-0.478,0.084-1.069,0.084-1.595c0.139,0.692,1.034,2.601,1.076,2.733c0.109-0.009,0.218-0.018,0.328-0.026                c0.178-0.596,0.086-1.428,0.095-1.942c0.293,0.565,0.623,1.237,0.991,1.847c0.057-0.006,0.113-0.011,0.169-0.017                c0.09-0.702-0.272-1.487-0.292-2.177c0.742,0.505,0.918,1.32,1.111,2.092c0.242-0.024,0.484-0.049,0.727-0.069                c-0.042-0.822-0.457-1.679-0.689-2.388c0.883,0.327,0.79,1.764,1.693,2.089c0.12-0.708-0.399-1.249-0.318-1.897                c0.66,0.493,1.281,1.299,1.475,2.139c0.254,0.007,0.508,0.019,0.762,0.034c-0.127-1.042-0.977-1.961-1.194-2.954                c0.583,0.263,1.531,1.315,1.725,1.742c-0.205-1.622-1.104-2.927-1.135-4.595c0.858,0.765,1.409,1.878,1.817,2.835                c-0.422-1.675-1.069-3.513,0.082-5.1c0.366,0.854,0.364,1.932,0.455,2.844c0.105,1.056,0.361,1.984,0.522,3.02                c0.001-1.385-0.18-2.832,0.02-4.145c0.225,0.785,0.215,1.778,0.483,2.623c0.244,0.767,0.655,1.451,0.968,2.233                c-0.378-0.05-0.689-0.315-1.003-0.52c0.43,1.05,2.521,2.414,2.634,2.484c-0.28-0.493-0.465-1.068-0.737-1.488                c0.652,0.623,1.41,1.365,1.96,2.13c1.838,0.436,4.813,1.694,10.044,1.694c2.254,0,7.946-1.499,9.649-2.014                c3.049-1.058,4.587-4.331,4.859-5.903c-0.601,0.828-1.076,1.839-1.706,2.576c0.156-1.497,0.966-2.596,1.51-4.339                c-0.308,0.549-0.814,1.051-1.097,1.616c0.161-1.179,0.823-2.34,1.066-3.528c0.618,0.602,0.392,1.888,0.745,2.661                c0.24-0.406,0.264-0.844,0.459-1.245c0.54,1.275,0.336,2.384,0.341,3.767c0.247-0.571,0.476-1.257,0.682-1.79                c0.386,1.295-0.383,2.441-1.015,3.458c0.511-0.181,1.095-0.643,1.543-1.015c-0.167,0.456-0.322,1.151-0.583,1.682                c0.389-0.124,0.774-0.257,1.152-0.405c0.292-0.178,0.432-0.428,0.505-1.107c0.21,0.263,0.482,0.423,0.789,0.515                c0.004-0.002,0.007-0.004,0.011-0.006c0.001,0.004,0.003,0.007,0.004,0.011C85.561,33.177,93.482,30.375,93.658,30.317z                 M90.816,33.096c0.154-0.247,0.434-0.44,0.72-0.533c-1.091-0.06-2.167,0.163-3.241,0.411c0.571,0.078,1.163,0.241,1.701,0.294                c0.728,0.072,1.508-0.092,2.262-0.204c-0.001-0.024-0.001-0.049-0.002-0.073C91.713,33.077,91.159,33.111,90.816,33.096z                 M92.86,31.871c0.295-0.167,0.641-0.359,1.007-0.546c-0.073,0.015-0.143,0.029-0.209,0.045c-0.282,0.064-0.564,0.128-0.848,0.188                c-0.418,0.194-0.847,0.37-1.212,0.579c0.657-0.007,1.172,0.06,1.729,0.224c0.678-0.12,1.376-0.194,1.887-0.733                C94.57,31.654,93.399,32.189,92.86,31.871z M90.638,34.112c0.441,0.153,0.854,0.356,1.191,0.609                c0.546,0.408,0.609,0.603,1.304,0.713c0.334,0.054,0.909-0.032,1.307,0.029c0.107-0.134,0.212-0.269,0.315-0.403                c-1.083,0.059-2.337-0.382-3.072-1.147C91.334,33.979,90.986,34.047,90.638,34.112z M95.417,34.138                c0.126-0.208,0.23-0.418,0.314-0.63c-0.712-0.032-1.417,0.011-2.118,0.095C94.063,34.093,94.79,34.343,95.417,34.138z M92.22,37.617                c-0.129,0.022-0.249,0.065-0.373,0.021c-0.426-0.15-0.766-0.409-1.175-0.696c-0.69-0.482-1.597-1.113-2.413-1.379                c-0.057,0.066-0.144,0.125-0.21,0.185c0.439,0.369,0.915,0.713,1.365,1.062c0.687,0.533,1.133,0.886,1.978,0.979                c0.183,0.021,0.382,0.003,0.581-0.021C92.056,37.72,92.138,37.669,92.22,37.617z M93.711,36.316                c-0.706,0.025-1.489-0.517-2.323-0.698c-0.535-0.116-1.688,0.214-1.916-0.355c-0.105-0.26,0.382-0.609,0.208-0.976                c-0.288,0.048-0.576,0.093-0.863,0.13c0.225,0.996,1.114,1.338,2.121,1.559c0.723,0.159,1.549,0.511,2.385,0.743                C93.454,36.589,93.584,36.454,93.711,36.316z M97.92,18.642c1.985,1.985,0.884,7.934,3.301,8.377                c-0.235,0.158-0.552,0.317-0.849,0.429c0.003,0.396-0.137,0.659-0.087,1.015c0.211,0.024,1.049,0.158,1.203,0.188                c-0.116,0.018-0.943,0.156-1.119,0.188c0.053,0.413-0.16,0.915,0.184,1.279c0.688-0.134,1.49-0.392,2.21-0.34                c-0.764,0.584-1.717,0.846-2.474,1.417c-0.134,0.101-0.292,0.25-0.454,0.419c1.26-0.347,2.466-0.425,3.045-1.757                c0.021,0.056,0.054,0.127,0.092,0.208c0.003-0.316,0.012-0.624-0.004-0.892c-0.083-1.366-0.328-2.514-0.805-3.81                c-0.446-1.212-0.844-2.503-1.35-3.748c-0.496-1.218-1.29-2.433-1.573-3.659c3.269,0.993,2.292,5.271,3.638,7.311                c0.246-6.973-3.309-8.013-3.394-8.625c-0.094-0.672,0.658-0.838,0.021-1.239c-0.48-0.302-0.884,0.181-1.333-0.417                c0.148-0.36,0.102-0.803,0.083-1.209c-0.686,0.229-1.213,0.672-1.891,0.76c0.738-0.898,1.853-1.211,2.696-1.9                c-0.528-0.529-1.53,0.139-2.163-0.193c-0.491-0.258-0.9-1.011-1.433-1.354c-0.403-0.259-1.655-1.001-0.499-1.068                c0.541-0.031,1.525,0.744,2.075,0.859c-0.951-0.899-2.358-1.841-3.614-2.321c0.297,0.371,0.336,0.944,0.32,1.437                c-1.396-1.397-2.689-0.983-2.771-0.963c2.086,0.437,3.537,3.06,4.247,4.818c1.073,2.66,2.129,5.742,2.263,8.62                c0.135,2.9,0.561,6.081-0.005,8.965c-0.865,4.414-2.352,6.62-3.756,7.678c0.118-0.012,0.824-0.101,0.824-0.101                c1.292-0.907,2.334-2.513,3.101-4.324C100.285,28.462,98.607,20.782,97.92,18.642z M103.682,34.154                c-0.324,0.258-0.729,0.444-1.204,0.595c0.233-0.203,0.437-0.434,0.607-0.691c-0.812,0.255-1.735,0.771-2.642,1.188                c-0.595,0.273-1.34,0.498-2,0.784c-0.104,0.241-0.214,0.48-0.33,0.717c0.435-0.125,0.914-0.191,1.276-0.159                c-0.465,0.466-1.097,0.704-1.705,0.985c-0.018,0.032-0.035,0.064-0.053,0.097c1.266-0.399,3.222-0.602,3.821-1.804                c-0.397,0.132-0.887,0.26-1.331,0.163c1.025-0.331,2.034-0.79,3.049-1.082C103.347,34.687,103.517,34.422,103.682,34.154z                 M105.927,32.263c1.402-1.432,2.112-3.343,2.782-5.189c0.661-1.823,0.857-3.834,0.763-5.765c-0.185-3.802-1.611-7.559-4.154-10.413                c1.133,1.74,2.053,3.59,2.589,5.603C108.445,18.514,109.467,23.177,105.927,32.263z"></path>            </svg>