<?xml version="1.0" standalone="no"?>
<!DOCTYPE svg PUBLIC "-//W3C//DTD SVG 20010904//EN"
 "http://www.w3.org/TR/2001/REC-SVG-20010904/DTD/svg10.dtd">
<svg version="1.0" xmlns="http://www.w3.org/2000/svg"
 width="170.000000pt" height="170.000000pt" viewBox="0 0 170.000000 170.000000"
 preserveAspectRatio="xMidYMid meet">
<metadata>
Created by potrace 1.11, written by Peter Selinger 2001-2013
</metadata>
<g transform="translate(0.000000,170.000000) scale(0.100000,-0.100000)"
fill="#000000" stroke="none">
<path d="M705 1555 c-246 -54 -451 -234 -529 -463 -27 -79 -47 -190 -45 -254
1 -35 3 -30 9 25 13 104 50 250 70 272 9 11 24 38 31 59 8 22 26 52 41 68 14
15 24 28 23 28 -4 0 70 70 135 130 19 18 78 51 130 75 81 36 110 44 196 52 57
6 130 6 171 1 72 -8 225 -58 252 -82 9 -7 31 -21 50 -31 37 -18 141 -118 182
-175 14 -19 44 -73 67 -120 33 -68 44 -106 56 -191 9 -60 13 -129 9 -159 -5
-42 -3 -51 7 -45 23 14 7 235 -24 331 -57 176 -201 341 -368 422 -137 66 -321
89 -463 57z"/>
<path d="M631 1446 c-110 -37 -136 -61 -126 -115 8 -41 52 -108 78 -117 9 -3
17 -12 17 -20 0 -21 41 -74 52 -68 5 3 8 0 6 -7 -5 -23 80 -129 97 -123 8 4
15 1 15 -5 0 -6 -5 -11 -12 -11 -6 0 1 -14 17 -30 44 -46 68 -36 67 28 -1 15
-1 48 -2 74 -1 53 -23 68 -52 34 -10 -10 -18 -15 -18 -9 0 13 44 53 58 53 12
0 13 9 13 193 0 100 -10 133 -38 123 -7 -3 -13 -1 -13 4 0 6 5 10 11 10 5 0 7
5 4 10 -11 18 -79 9 -174 -24z m22 -22 c8 -9 -15 -44 -30 -44 -6 0 -20 -12
-31 -26 -16 -22 -22 -25 -38 -16 -12 8 -14 11 -5 12 21 0 81 49 81 66 0 14 12
19 23 8z m87 -3 c0 -5 -3 -17 -6 -25 -6 -15 -8 -15 -19 1 -10 13 -10 20 -2 25
16 10 27 10 27 -1z m-210 -81 c0 -5 -4 -10 -10 -10 -5 0 -10 5 -10 10 0 6 5
10 10 10 6 0 10 -4 10 -10z m222 -19 c15 -18 15 -19 -6 -23 -19 -4 -22 -1 -18
19 5 28 4 27 24 4z m68 -31 c0 -5 -2 -10 -4 -10 -3 0 -8 5 -11 10 -3 6 -1 10
4 10 6 0 11 -4 11 -10z m-190 -30 c0 -13 -19 -22 -30 -15 -14 9 0 34 16 28 8
-3 14 -9 14 -13z m76 5 c-16 -17 -46 -20 -46 -6 0 9 20 17 48 20 10 1 10 -3
-2 -14z m114 -75 c0 -13 -7 -20 -20 -20 -19 0 -19 1 -3 20 10 11 19 20 20 20
2 0 3 -9 3 -20z m-69 -23 c-1 -12 -15 -9 -19 4 -3 6 1 10 8 8 6 -3 11 -8 11
-12z m-47 -63 c9 -23 7 -34 -4 -34 -5 0 -10 7 -10 15 0 8 -4 15 -10 15 -5 0
-10 5 -10 10 0 16 27 11 34 -6z m51 -44 c-3 -5 5 -16 17 -24 12 -9 20 -18 17
-20 -2 -3 -19 8 -36 23 -18 16 -30 31 -27 34 9 8 35 -4 29 -13z"/>
<path d="M932 1470 c-17 -7 -22 -15 -17 -30 5 -15 2 -20 -13 -20 -12 0 -22 -9
-26 -22 -9 -37 -7 -98 4 -98 7 0 7 -7 -1 -21 -6 -12 -9 -42 -6 -65 2 -24 1
-44 -4 -44 -5 0 -9 -34 -9 -75 0 -43 4 -75 10 -75 6 0 10 -7 10 -16 0 -8 -4
-12 -10 -9 -6 4 -10 -10 -10 -33 0 -57 21 -60 70 -10 39 41 53 67 28 52 -8 -5
-8 -1 2 12 22 30 24 30 16 9 -6 -17 -4 -17 18 4 14 14 23 27 20 30 -3 3 -9 -1
-14 -9 -8 -12 -10 -11 -10 6 0 12 7 27 15 34 13 11 14 10 9 -5 -17 -45 31 -1
115 103 89 111 106 142 76 142 -18 0 -20 17 -2 23 23 8 -23 46 -82 67 -31 12
-69 27 -86 35 -45 21 -78 25 -103 15z m138 -64 c0 -10 -13 -12 -50 -8 -32 3
-55 0 -65 -8 -12 -10 -15 -9 -15 7 0 18 5 20 49 15 30 -3 51 0 55 7 9 14 26 5
26 -13z m58 -58 c-20 -12 -25 -10 -31 11 -4 17 -2 18 19 9 18 -8 21 -14 12
-20z m-178 -40 c0 -5 -9 -8 -20 -8 -18 0 -19 3 -9 21 9 17 13 19 20 8 5 -8 9
-17 9 -21z m65 -38 c3 -5 -1 -10 -9 -10 -9 0 -19 0 -23 -1 -4 0 -9 4 -11 10
-5 14 35 14 43 1z m63 -14 c3 -15 1 -16 -17 -5 -11 7 -17 17 -14 22 8 13 28 2
31 -17z m37 -55 c-3 -6 -11 -11 -17 -11 -6 0 -6 6 2 15 14 17 26 13 15 -4z
m-115 -64 c0 -5 -6 -4 -14 2 -7 6 -20 10 -27 8 -8 -2 -11 -2 -6 0 4 3 7 12 7
20 0 14 3 14 20 -2 11 -10 20 -22 20 -28z m-92 -7 c-11 -17 -38 -28 -38 -16 0
18 15 36 31 36 17 0 18 -3 7 -20z m132 -5 c-12 -15 -30 -12 -30 6 0 5 10 9 21
9 18 0 19 -2 9 -15z m-114 -53 c-9 -9 -37 8 -31 18 5 8 11 7 21 -1 8 -6 12
-14 10 -17z m47 1 c-7 -2 -19 -2 -25 0 -7 3 -2 5 12 5 14 0 19 -2 13 -5z m-53
-54 c0 -5 -4 -9 -10 -9 -5 0 -10 7 -10 16 0 8 5 12 10 9 6 -3 10 -10 10 -16z"/>
<path d="M377 1270 c-14 -11 -52 -64 -83 -117 l-58 -96 20 -36 c20 -39 59 -55
189 -81 33 -7 69 -16 80 -20 41 -17 126 -32 150 -26 13 3 26 2 30 -4 7 -11
-38 -24 -64 -17 -28 7 -50 -10 -45 -35 l5 -23 -12 23 c-7 12 -16 22 -20 22 -5
0 -6 6 -3 14 6 15 8 15 -162 47 -124 23 -161 21 -150 -7 4 -11 2 -15 -8 -11
-36 14 -44 -37 -26 -166 21 -143 60 -172 167 -122 51 24 56 28 40 38 -49 31
-50 32 -33 46 13 11 17 9 27 -13 15 -32 46 -34 98 -7 20 10 60 29 88 41 50 22
81 45 82 63 1 4 1 10 1 13 0 4 7 1 15 -6 11 -9 20 -8 44 9 30 21 33 51 6 51
-7 0 -17 6 -24 13 -8 11 -5 13 18 9 16 -2 32 1 35 7 12 18 -59 116 -76 105 -5
-3 -7 0 -6 8 2 7 -3 12 -10 10 -8 -1 -11 2 -7 8 3 5 3 14 0 20 -9 14 -34 -12
-27 -29 3 -9 1 -12 -6 -7 -6 4 -10 20 -9 35 1 16 6 27 11 23 5 -3 5 1 1 9 -11
17 -96 122 -105 129 -3 3 -19 22 -35 43 -36 48 -61 63 -81 46 -10 -8 -14 -8
-14 0 0 16 -14 13 -43 -9z m27 -75 c4 -11 -2 -15 -21 -15 -26 0 -26 1 -7 15
10 8 20 15 20 15 1 0 4 -7 8 -15z m136 -25 c0 -5 -4 -10 -10 -10 -5 0 -10 5
-10 10 0 6 5 10 10 10 6 0 10 -4 10 -10z m-204 -13 c12 4 13 0 4 -22 -5 -14
-10 -44 -10 -66 0 -27 -4 -39 -15 -39 -7 0 -18 -8 -24 -17 -5 -10 -13 -15 -17
-11 -4 4 3 15 15 25 22 19 45 123 24 110 -7 -5 -9 1 -5 15 3 12 7 17 9 11 3
-7 11 -9 19 -6z m244 -29 c0 -6 -6 -5 -15 2 -8 7 -15 14 -15 16 0 2 7 1 15 -2
8 -4 15 -11 15 -16z m-94 -3 c-8 -8 -17 -15 -20 -15 -3 0 -6 7 -6 15 0 9 9 15
21 15 18 0 19 -2 5 -15z m124 -45 c9 -16 8 -20 -5 -20 -8 0 -15 9 -15 20 0 11
2 20 5 20 2 0 9 -9 15 -20z m-140 -15 c0 -16 -6 -25 -15 -25 -18 0 -18 5 -5
31 14 26 20 24 20 -6z m100 -52 c-1 -24 -2 -26 -11 -10 -5 9 -7 22 -4 27 10
17 15 11 15 -17z m-156 -1 c2 -4 1 -13 -3 -20 -4 -8 -11 -5 -19 8 -10 16 -10
20 2 20 8 0 17 -4 20 -8z m226 -57 c0 -17 -5 -25 -18 -25 -10 0 -23 -5 -30
-12 -9 -9 -12 -9 -12 0 0 7 -10 12 -22 12 -21 1 -21 2 -5 11 12 7 22 7 30 1
14 -12 47 8 47 27 0 6 2 11 5 11 3 0 5 -11 5 -25z m56 -24 c-3 -5 -15 -7 -26
-4 -28 7 -25 13 6 13 14 0 23 -4 20 -9z m-286 -42 c0 -5 -4 -9 -10 -9 -5 0
-10 7 -10 16 0 8 5 12 10 9 6 -3 10 -10 10 -16z m50 1 c0 -5 -4 -10 -10 -10
-5 0 -10 5 -10 10 0 6 5 10 10 10 6 0 10 -4 10 -10z m68 -32 c-5 -15 -23 -11
-26 6 -2 11 2 14 13 10 9 -4 14 -11 13 -16z m-240 -27 c10 -6 9 -10 -7 -14
-14 -3 -21 0 -21 9 0 16 9 18 28 5z m102 -11 c0 -11 -4 -20 -9 -20 -11 0 -22
26 -14 34 12 12 23 5 23 -14z m288 -14 c-2 -1 -12 -8 -22 -16 -18 -14 -19 -14
-7 8 7 12 17 20 22 16 6 -3 9 -7 7 -8z m-148 -5 c0 -12 -20 -25 -27 -18 -7 7
6 27 18 27 5 0 9 -4 9 -9z m-110 -61 c-17 -11 -15 -12 -24 23 l-7 28 23 -21
c19 -17 20 -22 8 -30z m210 41 c0 -5 -7 -14 -15 -21 -8 -7 -12 -16 -9 -21 3
-5 -3 -9 -13 -9 -11 0 -24 -5 -30 -11 -9 -9 -10 -6 -6 10 3 13 11 20 19 17 8
-3 14 0 14 7 0 14 20 37 32 37 4 0 8 -4 8 -9z m-360 -35 c0 -8 6 -16 13 -19 6
-2 9 -7 5 -11 -5 -6 -28 3 -58 22 -5 4 21 22 33 22 4 0 7 -6 7 -14z m48 -98
c-4 -9 -5 -24 -2 -32 3 -9 2 -16 -3 -16 -18 0 -22 13 -12 32 8 14 8 23 0 31
-20 20 -13 39 7 20 13 -12 16 -23 10 -35z"/>
<path d="M1233 1248 c-53 -46 -72 -70 -66 -85 3 -7 -1 -13 -9 -13 -14 0 -64
-44 -97 -83 -12 -15 -11 -17 3 -17 9 0 16 6 16 14 0 8 4 17 8 20 5 3 9 -8 9
-24 0 -19 -6 -30 -19 -33 -10 -3 -18 -14 -18 -26 0 -12 -4 -21 -10 -21 -5 0
-7 13 -3 30 7 39 -8 39 -41 -1 -17 -20 -25 -38 -21 -50 4 -11 2 -19 -4 -19 -6
0 -11 6 -11 13 0 19 -49 -46 -50 -65 0 -14 8 -18 35 -18 19 0 35 -4 35 -10 0
-5 -13 -10 -29 -10 -38 0 -45 -23 -15 -51 13 -12 24 -27 24 -33 0 -6 -4 -5 -8
2 -5 7 -22 14 -38 15 -42 3 -40 -19 9 -136 7 -15 20 -30 29 -33 19 -6 24 -30
8 -36 -9 -3 21 -90 77 -221 20 -47 57 -77 93 -77 31 0 173 108 203 154 23 34
22 56 -3 56 -11 0 -20 5 -20 11 0 6 9 9 20 6 11 -3 20 -3 20 0 0 13 -64 66
-98 81 -20 10 -65 36 -99 60 -34 23 -65 42 -69 42 -3 0 -20 12 -37 26 -23 19
-38 24 -59 20 -30 -6 -37 4 -14 23 10 9 16 9 21 1 4 -6 12 -9 18 -7 7 2 18 -2
25 -9 17 -17 42 -7 42 18 0 10 5 16 10 13 6 -3 10 -15 10 -26 0 -10 6 -19 13
-20 6 0 3 -4 -7 -8 -22 -8 -12 -16 119 -86 39 -21 79 -44 90 -51 21 -15 80
-19 71 -6 -2 4 -1 14 5 22 7 13 9 12 9 -2 0 -37 32 -9 48 42 18 58 35 195 28
224 -10 39 -60 58 -131 50 -30 -4 -55 -10 -55 -13 0 -3 -19 -7 -43 -8 -62 -2
-216 -21 -227 -28 -6 -4 -8 -11 -5 -16 4 -5 -1 -9 -9 -9 -9 0 -14 8 -13 20 1
15 11 21 45 26 32 5 46 12 49 25 3 11 14 19 24 19 13 0 17 -5 12 -16 -5 -14
-2 -16 18 -11 13 3 65 13 114 22 144 28 170 37 173 63 2 12 7 20 12 17 22 -14
20 39 -3 83 -13 26 -36 70 -51 98 -29 57 -50 78 -83 88 -17 6 -23 3 -23 -8 0
-9 -4 -16 -10 -16 -5 0 -7 7 -4 15 9 23 -1 18 -43 -17z m95 -58 c19 -18 38
-27 47 -24 9 4 15 0 15 -9 0 -28 -17 -27 -49 3 -17 17 -38 30 -46 30 -8 0 -15
7 -15 15 0 22 14 18 48 -15z m-94 -29 c10 -16 -18 -30 -31 -16 -10 11 -10 15
0 18 19 8 25 8 31 -2z m165 -93 c1 -5 -3 -8 -9 -8 -5 0 -10 12 -9 28 0 24 1
25 9 7 5 -11 9 -23 9 -27z m-152 13 c10 -17 9 -19 -13 -17 -13 0 -24 2 -24 3
0 9 14 33 19 33 3 0 12 -9 18 -19z m53 -43 c0 -7 -5 -20 -10 -28 -8 -12 -10
-9 -10 13 0 15 5 27 10 27 6 0 10 -6 10 -12z m-132 -29 c-2 -6 -8 -10 -13 -10
-5 0 -11 4 -13 10 -2 6 4 11 13 11 9 0 15 -5 13 -11z m-68 -59 c0 -5 -2 -10
-4 -10 -3 0 -8 5 -11 10 -3 6 -1 10 4 10 6 0 11 -4 11 -10z m95 1 c7 -12 -12
-24 -25 -16 -11 7 -4 25 10 25 5 0 11 -4 15 -9z m-165 -11 c0 -5 -4 -10 -10
-10 -5 0 -10 5 -10 10 0 6 5 10 10 10 6 0 10 -4 10 -10z m227 4 c-3 -3 -12 -4
-19 -1 -8 3 -5 6 6 6 11 1 17 -2 13 -5z m193 -53 c0 -6 -4 -13 -10 -16 -5 -3
-10 1 -10 9 0 9 5 16 10 16 6 0 10 -4 10 -9z m-120 -26 c10 -12 10 -19 2 -27
-14 -14 -17 -11 -26 20 -8 25 5 29 24 7z m-170 -12 c0 -7 -7 -10 -15 -6 -9 3
-25 -3 -36 -13 -15 -13 -22 -15 -31 -6 -9 9 -7 12 10 12 13 0 25 6 28 13 6 16
44 17 44 0z m270 -13 c0 -11 -4 -20 -9 -20 -11 0 -22 26 -14 34 12 12 23 5 23
-14z m-380 -20 c-20 -13 -33 -13 -25 0 3 6 14 10 23 10 15 0 15 -2 2 -10z
m250 -37 c0 -20 -3 -24 -11 -16 -7 7 -9 19 -6 27 10 24 17 19 17 -11z m156
-23 c21 0 17 -17 -5 -23 -15 -4 -20 2 -23 24 -3 16 -2 32 1 35 3 3 7 -4 9 -15
2 -12 10 -21 18 -21z m-256 26 c0 -2 -7 -9 -15 -16 -12 -10 -15 -10 -15 4 0 9
7 16 15 16 8 0 15 -2 15 -4z m109 -87 c-17 -10 -24 4 -14 29 6 16 7 16 17 -2
8 -14 7 -21 -3 -27z m-135 22 c3 -5 -3 -11 -13 -14 -14 -3 -18 -1 -14 9 6 16
19 18 27 5z m-187 -17 c-3 -3 -12 -4 -19 -1 -8 3 -5 6 6 6 11 1 17 -2 13 -5z
m76 -18 c9 0 17 -4 17 -9 0 -4 5 -5 10 -2 6 3 10 -1 10 -9 0 -21 -17 -29 -24
-11 -6 17 -42 20 -51 5 -3 -5 -11 -10 -17 -10 -6 0 -5 6 3 16 10 13 10 17 -2
25 -10 7 -7 8 11 3 14 -4 33 -8 43 -8z m349 -17 l-9 -23 -11 21 c-10 18 -9 22
6 25 23 6 24 5 14 -23z m-186 -7 c-10 -2 -22 0 -28 6 -6 6 0 7 19 4 21 -5 23
-7 9 -10z m49 -12 c-3 -5 -10 -10 -16 -10 -5 0 -9 5 -9 10 0 6 7 10 16 10 8 0
12 -4 9 -10z m-195 -71 c0 -5 -9 -9 -19 -9 -11 0 -29 -12 -40 -27 -21 -28 -30
-13 -11 17 5 8 10 11 10 7 0 -4 10 1 22 12 20 20 38 20 38 0z m155 -30 c10
-15 -1 -23 -20 -15 -9 3 -13 10 -10 16 8 13 22 13 30 -1z m-60 -29 c-3 -5 -13
-10 -21 -10 -8 0 -14 5 -14 10 0 6 9 10 21 10 11 0 17 -4 14 -10z m122 -39
c-2 -3 -10 -21 -17 -38 -8 -18 -18 -33 -23 -33 -5 0 -4 -7 3 -15 16 -19 5 -32
-13 -17 -8 7 -17 8 -22 4 -4 -4 7 13 24 38 18 24 30 52 28 62 -3 11 0 15 10
11 7 -3 12 -8 10 -12z m-267 -1 c0 -5 -2 -10 -4 -10 -3 0 -8 5 -11 10 -3 6 -1
10 4 10 6 0 11 -4 11 -10z m100 -29 c0 -14 -5 -18 -20 -14 -25 7 -26 20 -2 26
9 3 18 5 20 6 1 0 2 -8 2 -18z m-77 -20 c-4 -4 -11 -10 -15 -15 -5 -5 -8 3 -8
19 0 24 2 26 15 15 9 -7 12 -16 8 -19z m130 -58 c8 -7 -11 -33 -23 -33 -5 0
-6 9 -3 20 5 20 15 25 26 13z m-53 -67 c0 -3 -4 -8 -10 -11 -5 -3 -10 -1 -10
4 0 6 5 11 10 11 6 0 10 -2 10 -4z"/>
<path d="M765 787 c-16 -5 -33 -15 -37 -21 -4 -6 -8 -7 -8 -3 0 4 -6 2 -14 -5
-10 -10 -11 -15 -2 -21 6 -5 2 -6 -10 -2 -21 6 -36 -6 -47 -37 -4 -12 -2 -15
9 -11 7 3 14 0 14 -6 0 -15 -25 -14 -39 2 -8 10 -7 17 2 26 6 6 -3 5 -21 -4
-18 -9 -30 -21 -27 -26 4 -5 0 -7 -7 -4 -16 6 -207 -104 -222 -127 -8 -13 -5
-22 9 -39 l20 -22 -23 12 c-20 11 -22 9 -22 -11 0 -20 30 -58 74 -95 20 -17
26 -16 41 3 10 14 15 15 36 3 l24 -14 -32 -3 c-18 -2 -33 -6 -33 -10 0 -18 32
-51 64 -66 61 -29 104 -4 141 82 16 37 17 45 4 53 -12 7 -11 9 2 9 9 0 22 15
30 33 7 17 16 34 20 37 11 9 46 84 58 124 8 30 7 43 -2 55 -10 12 -9 14 10 9
16 -4 20 -2 16 8 -3 8 0 14 7 14 12 0 12 -4 -5 -83 -2 -9 -7 -22 -10 -27 -11
-17 16 -41 39 -35 12 2 8 -2 -9 -10 -16 -8 -35 -14 -41 -15 -14 0 -78 -195
-69 -211 5 -7 4 -10 -2 -6 -11 7 -23 -23 -23 -60 0 -16 6 -23 20 -23 21 0 29
-20 8 -20 -7 -1 -2 -10 12 -21 22 -19 35 -20 143 -17 116 3 119 4 143 31 13
15 24 41 24 56 0 29 -26 102 -40 111 -4 3 -10 21 -13 40 -12 70 -18 93 -28
112 -15 27 -30 22 -23 -8 5 -18 3 -25 -3 -21 -6 4 -13 18 -15 32 -4 19 -1 25
13 25 17 0 17 3 2 45 -8 25 -21 45 -29 45 -8 0 -14 5 -14 11 0 5 5 7 10 4 17
-11 10 29 -10 55 -17 22 -22 23 -39 13 -29 -18 -32 -16 -25 11 7 29 -10 37
-51 23z m-15 -92 c0 -8 -4 -15 -10 -15 -5 0 -10 7 -10 15 0 8 5 15 10 15 6 0
10 -7 10 -15z m-24 -39 c8 -9 11 -66 4 -66 -6 0 -10 -12 -11 -27 l-1 -28 -9
30 c-5 18 -5 31 2 35 12 8 -4 55 -23 64 -7 3 -2 3 12 0 14 -4 25 -7 26 -8z
m-120 -10 c21 -22 17 -27 -11 -14 -13 6 -22 15 -19 19 7 12 13 11 30 -5z m268
-2 c9 -24 7 -27 -9 -10 -17 17 -19 26 -6 26 5 0 12 -7 15 -16z m-368 -37 c-15
-15 -27 -20 -29 -14 -2 7 8 19 22 28 35 22 38 16 7 -14z m134 -13 c0 -8 -4
-12 -10 -9 -5 3 -10 10 -10 16 0 5 5 9 10 9 6 0 10 -7 10 -16z m253 10 c11
-11 -3 -24 -18 -18 -8 4 -12 10 -9 15 6 11 18 12 27 3z m-373 -75 c0 -5 -7 -9
-15 -9 -15 0 -20 12 -9 23 8 8 24 -1 24 -14z m290 -19 c8 -5 3 -9 -12 -12 -21
-4 -24 -1 -20 20 3 15 7 20 12 12 4 -7 13 -16 20 -20z m-216 -5 c6 -16 -3 -19
-29 -9 -13 5 -14 8 -3 15 19 12 25 11 32 -6z m266 -11 c0 -14 -3 -14 -15 -4
-8 7 -15 14 -15 16 0 2 7 4 15 4 8 0 15 -7 15 -16z m-420 -30 c0 -9 -5 -14
-12 -12 -18 6 -21 28 -4 28 9 0 16 -7 16 -16z m200 -23 c0 -5 -9 -11 -20 -14
-13 -3 -20 0 -20 9 0 8 9 14 20 14 11 0 20 -4 20 -9z m106 -48 c-10 -10 -19 5
-10 18 6 11 8 11 12 0 2 -7 1 -15 -2 -18z m148 -4 c-3 -5 -14 -9 -25 -9 -16 0
-18 3 -7 19 9 15 16 17 25 9 7 -5 10 -14 7 -19z m76 4 c-1 -19 -19 -35 -30
-28 -10 6 -9 11 5 22 22 15 25 16 25 6z m-153 -34 c-11 -18 -12 -18 -19 -1
-11 27 -9 30 11 25 17 -4 18 -8 8 -24z m-246 6 c1 -16 -16 -16 -36 0 -19 15
-19 15 8 13 15 -2 28 -7 28 -13z m29 -39 c0 -3 -4 -8 -10 -11 -5 -3 -10 -1
-10 4 0 6 5 11 10 11 6 0 10 -2 10 -4z m188 -67 c-7 -5 -20 -8 -28 -8 -8 0 -5
4 8 9 12 5 23 17 23 27 1 16 2 16 6 -1 3 -10 -1 -22 -9 -27z m143 3 c-30 -9
-51 -20 -51 -28 0 -18 -16 -18 -23 0 -4 10 8 18 38 26 24 7 46 19 49 27 5 13
9 13 22 2 14 -11 9 -15 -35 -27z m84 8 c3 -5 1 -10 -4 -10 -6 0 -11 5 -11 10
0 6 2 10 4 10 3 0 8 -4 11 -10z"/>
<path d="M141 765 c-1 -44 35 -167 69 -236 33 -65 50 -80 24 -21 -50 112 -67
161 -79 221 -8 40 -13 54 -14 36z"/>
<path d="M1541 674 c0 -11 3 -14 6 -6 3 7 2 16 -1 19 -3 4 -6 -2 -5 -13z"/>
<path d="M1521 613 c-23 -64 -90 -169 -148 -233 -66 -72 -171 -149 -233 -171
-25 -9 -56 -21 -70 -26 -14 -6 -75 -18 -136 -27 -101 -15 -118 -15 -186 -1
-41 9 -108 28 -149 44 -79 29 -238 136 -266 177 -9 14 -25 30 -36 36 -38 20
21 -50 90 -107 116 -96 235 -147 383 -166 295 -38 594 125 725 395 26 53 45
101 43 107 -2 6 -10 -7 -17 -28z"/>
</g>
</svg>
